<svg id="Capa_1" enable-background="new 0 0 511.987 511.987" height="512" viewBox="0 0 511.987 511.987" width="512" xmlns="http://www.w3.org/2000/svg"><g><g><ellipse cx="403.437" cy="84.737" fill="#c17d4f" rx="87.883" ry="64.852" transform="matrix(.707 -.707 .707 .707 58.246 310.092)"/><path d="m473.075 32.278c-26.666-15.777-67.977-6.559-98.321 23.785-30.336 30.344-39.553 71.655-23.785 98.321-3.498-2.066-6.748-4.57-9.68-7.502-25.32-25.328-18.032-73.679 16.291-108.001 34.314-34.314 82.673-41.611 107.993-16.283 2.932 2.932 5.436 6.182 7.502 9.68z" fill="#985e33"/><ellipse cx="409.307" cy="99.045" fill="#e4936b" rx="47.046" ry="34.717" transform="matrix(.707 -.707 .707 .707 49.848 318.433)"/><ellipse cx="108.551" cy="84.737" fill="#c17d4f" rx="64.852" ry="87.883" transform="matrix(.707 -.707 .707 .707 -28.125 101.576)"/><path d="m38.912 32.278c26.666-15.777 67.977-6.559 98.321 23.785 30.336 30.344 39.553 71.655 23.785 98.321 3.498-2.066 6.748-4.57 9.68-7.502 25.32-25.328 18.032-73.679-16.291-108.001-34.313-34.315-82.672-41.612-107.992-16.284-2.932 2.933-5.436 6.183-7.503 9.681z" fill="#985e33"/><ellipse cx="102.681" cy="99.045" fill="#e4936b" rx="34.717" ry="47.046" transform="matrix(.707 -.707 .707 .707 -39.961 101.616)"/><path d="m463.585 227.549c-8.643-14.194-14.495-29.859-18.281-46.04-17.145-73.282-95.379-128.635-189.31-128.635-93.932 0-172.165 55.353-189.31 128.634-3.786 16.181-9.638 31.847-18.281 46.041-15.693 25.771-24.527 54.868-24.527 85.667 0 105.642 103.923 191.283 232.118 191.283s232.118-85.64 232.118-191.283c0-30.799-8.835-59.896-24.527-85.667z" fill="#c17d4f"/><path d="m254.358 504.486c-127.443-.724-230.484-86.076-230.484-191.266 0-30.799 8.833-59.896 24.531-85.672 8.642-14.197 14.495-29.863 18.273-46.039 17.145-73.284 95.389-128.635 189.319-128.635-51.19 0-93.835 55.351-103.179 128.635-2.054 16.177-5.247 31.842-9.961 46.039-8.546 25.776-13.367 54.873-13.367 85.672 0 104.807 55.756 189.936 124.868 191.266z" fill="#985e33"/><path d="m218.247 473.059h36.685v-123.123h-54.737z" fill="#f9f6f9"/><path d="m291.618 473.059h-36.686v-123.123h54.737z" fill="#f9f6f9"/><path d="m302.49 270.881h-47.477-47.477c-26.221 0-47.477 21.256-47.477 47.477v35.575c0 26.221 21.256 47.477 47.477 47.477 26.221 0 47.477-21.256 47.477-47.477 0 26.221 21.256 47.477 47.477 47.477 26.221 0 47.477-21.256 47.477-47.477v-35.575c0-26.221-21.256-47.477-47.477-47.477z" fill="#e4936b"/><path d="m223.711 398.586c-5.051 1.836-10.498 2.83-16.178 2.83-26.219 0-47.478-21.259-47.478-47.478v-35.581c0-26.219 21.259-47.478 47.478-47.478h32.366c-26.229 0-47.478 21.259-47.478 47.478v35.581c0 20.539 13.033 38.035 31.29 44.648z" fill="#dd6938"/><path d="m276.634 232.048h-43.242c-21.447 0-38.833 17.386-38.833 38.833 0 21.447 17.386 38.833 38.833 38.833h43.242c21.447 0 38.833-17.386 38.833-38.833 0-21.447-17.386-38.833-38.833-38.833z" fill="#454045"/></g><g><path d="m469.978 223.651c-7.671-12.597-13.519-27.35-17.383-43.845-2.611-11.165-6.553-21.889-11.662-32.073 4.777-3.57 9.354-7.527 13.657-11.829 17.719-17.725 29.302-39.585 32.615-61.553 3.441-22.812-2.36-43.071-16.335-57.046-13.975-13.976-34.234-19.778-57.046-16.336-21.968 3.314-43.828 14.897-61.552 32.618-7.535 7.534-13.937 15.811-19.129 24.653-23.885-8.301-49.992-12.858-77.15-12.858-27.156 0-53.262 4.558-77.148 12.86-5.193-8.843-11.594-17.121-19.129-24.655-17.725-17.72-39.585-29.303-61.553-32.617-22.812-3.444-43.071 2.36-57.046 16.336-13.976 13.973-19.777 34.233-16.336 57.045 3.314 21.968 14.897 43.828 32.618 61.554 4.301 4.301 8.878 8.258 13.657 11.829-5.109 10.183-9.052 20.905-11.665 32.069-3.865 16.499-9.713 31.251-17.383 43.848-17.002 27.925-25.623 58.059-25.623 89.566 0 28.65 7.18 56.295 21.34 82.167 1.988 3.633 6.545 4.967 10.18 2.978 3.633-1.989 4.967-6.546 2.978-10.18-12.938-23.638-19.498-48.86-19.498-74.965 0-28.715 7.885-56.225 23.435-81.766 8.497-13.955 14.948-30.181 19.176-48.229 16.658-71.179 93.2-122.842 181.998-122.842 88.808 0 165.349 51.662 181.997 122.844 4.227 18.046 10.679 34.272 19.176 48.227 15.551 25.54 23.435 53.05 23.435 81.766 0 101.331-100.759 183.77-224.608 183.77-38.842 0-77.125-8.253-110.71-23.866-32.422-15.073-60.028-36.725-79.833-62.616-2.516-3.289-7.223-3.916-10.513-1.4s-3.917 7.223-1.4 10.513c21.272 27.81 50.811 51.014 85.423 67.105 35.552 16.527 76.021 25.264 117.033 25.264 63.735 0 123.717-20.504 168.895-57.734 45.599-37.577 70.712-87.664 70.712-141.035 0-31.508-8.621-61.643-25.623-89.567zm-391.472-89.09c-3.653-2.833-7.168-5.929-10.5-9.261-31.335-31.345-38.64-75.033-16.283-97.39 22.356-22.356 66.045-15.051 97.388 16.282 6.027 6.027 11.235 12.571 15.549 19.529-8.926 3.807-17.479 8.154-25.59 13-1.982-2.634-4.16-5.15-6.531-7.514-10.008-10.014-22.4-16.566-34.894-18.448-13.334-2.011-25.236 1.447-33.52 9.731-9.725 9.725-12.768 24.933-8.139 40.684.96 3.268 3.95 5.387 7.192 5.387.7 0 1.413-.099 2.118-.306 3.974-1.168 6.249-5.336 5.081-9.31-3.103-10.558-1.516-19.979 4.354-25.849 4.831-4.832 12.175-6.786 20.679-5.506 9.345 1.408 18.763 6.458 26.528 14.228 1.624 1.62 3.13 3.323 4.517 5.094-19.511 13.731-35.882 30.544-47.949 49.649zm307.028-49.651c1.388-1.772 2.896-3.477 4.523-5.1 7.757-7.761 17.176-12.811 26.52-14.219 8.503-1.281 15.847.674 20.679 5.506 5.871 5.87 7.458 15.292 4.355 25.849-1.168 3.973 1.106 8.142 5.08 9.31.706.208 1.418.306 2.118.306 3.242 0 6.232-2.119 7.192-5.387 4.63-15.749 1.587-30.958-8.138-40.684-8.286-8.285-20.187-11.739-33.521-9.731-12.493 1.883-24.885 8.434-34.885 18.439-2.375 2.369-4.555 4.886-6.538 7.521-8.111-4.845-16.665-9.193-25.591-12.999 4.313-6.956 9.521-13.5 15.548-19.526 31.343-31.335 75.033-38.639 97.387-16.283 22.356 22.356 15.052 66.044-16.28 97.388-3.333 3.332-6.847 6.428-10.499 9.261-12.066-19.107-28.437-35.92-47.95-49.651z"/><path d="m135.665 207.483c-12.706 0-23.044 15.45-23.044 34.441s10.337 34.441 23.044 34.441 23.044-15.45 23.044-34.441-10.337-34.441-23.044-34.441z"/><path d="m374.301 276.365c12.706 0 23.044-15.45 23.044-34.441s-10.337-34.441-23.044-34.441-23.045 15.45-23.045 34.441 10.337 34.441 23.045 34.441z"/><path d="m322.811 267.293c-1.839-23.875-21.84-42.744-46.178-42.744h-43.239c-24.331 0-44.328 18.858-46.177 42.723-20.656 8.24-34.657 28.495-34.657 51.084v35.576c0 28.173 21.307 51.451 48.651 54.598l9.618 65.604c.54 3.682 3.699 6.412 7.421 6.412h36.673.01 36.683c3.721 0 6.88-2.729 7.421-6.412l9.616-65.587c27.424-3.073 48.817-26.388 48.817-54.613v-21.639c0-4.142-3.357-7.5-7.5-7.5s-7.5 3.358-7.5 7.5v21.639c0 22.038-17.935 39.968-39.978 39.968-22.012 0-39.923-17.878-39.975-39.873 0-.032.001-.065.001-.097v-36.722h14.115c21.312 0 39.298-14.469 44.679-34.096 9.217 4.966 16.366 13.478 19.44 23.619.981 3.239 3.957 5.326 7.174 5.326.721 0 1.453-.104 2.179-.324 3.964-1.202 6.203-5.389 5.002-9.353-4.828-15.927-16.958-28.94-32.296-35.089zm-155.252 86.64v-35.576c0-14.904 8.379-28.413 21.149-35.265 5.373 19.639 23.365 34.119 44.685 34.119h14.12v31.677c-.048.342-.081.689-.081 1.044v6.511c-1.291 20.932-18.706 37.376-39.686 37.464h-.213c-22.041-.001-39.974-17.933-39.974-39.974zm48.762 54.26c12.129-1.96 22.979-7.906 31.111-16.481v73.835h-22.702zm77.227-.03-8.413 57.385h-22.703v-74.024c8.1 8.623 18.937 14.638 31.116 16.639zm-16.915-105.952h-43.239c-17.276 0-31.331-14.055-31.331-31.331s14.055-31.331 31.331-31.331h43.239c17.276 0 31.331 14.055 31.331 31.331s-14.055 31.331-31.331 31.331z"/></g></g></svg>