<?xml version="1.0" encoding="iso-8859-1"?>
<!-- Generator: Adobe Illustrator 19.0.0, SVG Export Plug-In . SVG Version: 6.00 Build 0)  -->
<svg version="1.1" id="Capa_1" xmlns="http://www.w3.org/2000/svg" xmlns:xlink="http://www.w3.org/1999/xlink" x="0px" y="0px"
	 viewBox="0 0 512.002 512.002" style="enable-background:new 0 0 512.002 512.002;" xml:space="preserve">
<path style="fill:#713BB7;" d="M208.341,291.387L208.341,291.387l97.972-69.834c0.892-0.629,1.724-1.298,2.504-2.007l-8.172-42.592
	c-7.614-2.849-16.455-2.028-23.603,3.001l-49.121,35.617"/>
<path style="fill:#8D4AD3;" d="M228.13,256.482l-0.163-52.117c-0.051-15.708-8.118-29.533-20.316-37.59l-53.725-15.865
	c-31.602,46.11-45.157,102.541-37.553,158.394c1.338,9.855,4.278,19.344,8.638,28.124c4.36,8.79,10.139,16.871,17.165,23.907
	l8.557,8.557L90.651,429.68l33.913,34.684l0.142-0.152l20.784,21.078l3.863-3.853c11.528-11.538,11.528-30.233,0-41.761
	l52.832-52.629c9.469-9.49,9.469-24.839,0-34.309l-11.548-11.548c-5.738-5.749-1.673-15.563,6.448-15.563
	c1.947,0,4.289,0.558,6.479,1.47c2.2,0.912,4.248,2.16,5.627,3.548l39.246,39.246l-60.081,59.787l33.913,34.684l0.142-0.152
	l20.784,21.078l3.853-3.853c11.497-11.507,11.527-30.122,0.091-41.659l52.751-52.73c9.469-9.49,9.469-24.839,0-34.309l-45.39-45.39"
	/>
<g>
	<path style="fill:#713BB7;" d="M142.488,464.213l-0.142,0.151l-33.913-34.684l51.503-51.25c4.734-4.711,4.744-12.371,0.021-17.094
		l0,0c-7.026-7.035-12.805-15.116-17.165-23.907c-4.36-8.779-7.3-18.27-8.638-28.123c-7.365-54.095,5.119-108.732,34.623-154.009
		l-14.851-4.385c-31.602,46.11-45.157,102.542-37.553,158.394c1.338,9.855,4.278,19.344,8.638,28.123
		c4.36,8.791,10.139,16.872,17.165,23.907l8.557,8.557L90.651,429.68l33.913,34.684l0.142-0.151l20.784,21.078l3.863-3.854
		c1.759-1.76,3.245-3.688,4.468-5.73L142.488,464.213z"/>
	<path style="fill:#713BB7;" d="M240.193,464.213l-0.142,0.151l-33.913-34.684l51.503-51.25c4.735-4.711,4.744-12.371,0.021-17.094
		l-30.689-30.689c-1.379-1.389-3.427-2.637-5.627-3.548c-2.19-0.912-4.532-1.47-6.479-1.47c-3.166,0-5.703,1.5-7.296,3.662
		c0.602,0.432,1.152,0.885,1.62,1.357l39.246,39.246l-60.081,59.787l33.913,34.684l0.142-0.151l20.784,21.078l3.853-3.854
		c1.761-1.761,3.249-3.692,4.472-5.736L240.193,464.213z"/>
</g>
<g>
	<path style="fill:#455256;" d="M164.571,424.519l-15.218,15.157c11.528,11.527,11.528,30.224,0,41.761l-3.863,3.853l-20.784-21.078
		l-0.142,0.152L90.651,429.68l39.642-39.439L164.571,424.519z"/>
	<path style="fill:#455256;" d="M247.139,439.778c11.436,11.538,11.406,30.151-0.091,41.659l-3.853,3.853l-20.784-21.078
		l-0.142,0.152l-33.913-34.684l39.875-39.673l34.349,34.339L247.139,439.778z"/>
</g>
<path style="fill:#E5C691;" d="M220.596,202.057c2.491,0,4.952-0.143,7.371-0.438c-0.922-14.563-8.738-27.259-20.219-34.843
	l-47.142-13.919v3.442h0.01C167.809,182.667,191.939,202.057,220.596,202.057z"/>
<polygon style="fill:#A56247;" points="316.616,504.394 296.847,390.655 336.385,363.282 293.805,141.259 342.468,127.573 
	330.303,7.606 429.361,7.606 429.361,504.394 "/>
<path style="fill:#455256;" d="M174.675,47.233c-15.439-15.439-43.826-14.425-59.034,0.783s-9.627,43.087-25.343,58.803
	c0,0,37.677-11.232,49.868-28.293"/>
<circle style="fill:#F9DCA2;" cx="196.508" cy="105.593" r="62.169"/>
<path style="fill:#E5C691;" d="M170.83,105.596c0-27.986,18.493-51.648,43.924-59.446c-5.772-1.769-11.898-2.727-18.249-2.727
	c-34.337,0-62.174,27.836-62.174,62.174s27.836,62.173,62.174,62.173c6.352,0,12.477-0.957,18.249-2.726
	C189.324,157.243,170.83,133.581,170.83,105.596z"/>
<path style="fill:#8D4AD3;" d="M249.728,73.439c0,0-35.708,8.901-78.898,31.693c-10.818,5.708-22.102,12.288-33.417,19.821
	c-2.007-6.093-3.082-12.602-3.082-19.354c0-34.339,27.84-62.18,62.169-62.18c6.326,0,12.44,0.943,18.189,2.707
	c0.02,0.01,0.03,0.01,0.051,0.01C229.48,50.657,241.891,60.501,249.728,73.439z"/>
<path style="fill:#713BB7;" d="M214.75,46.146c-25.286,7.755-43.717,31.196-43.92,58.986c-10.818,5.708-22.102,12.288-33.417,19.821
	c-2.007-6.093-3.082-12.602-3.082-19.354c0-34.339,27.84-62.18,62.169-62.18c6.326,0,12.44,0.943,18.189,2.707
	c0.02,0.01,0.03,0.01,0.051,0.01L214.75,46.146z"/>
<path style="fill:#8D4AD3;" d="M173.95,209.076l18.162,47.418l66.224-0.023c14.258-0.004,26.274,11.661,26.008,25.916
	c-0.258,13.819-11.54,24.945-25.421,24.949l-84.295,0.027c-1.681,0-3.336-0.164-4.943-0.482
	c-8.467-1.673-15.647-7.583-18.815-15.854l-24.422-63.758c-5.024-13.117,1.536-27.823,14.653-32.847l0,0
	C154.22,189.398,168.927,195.958,173.95,209.076z"/>
<path style="fill:#F9DCA2;" d="M308.818,219.546c-0.781,0.71-1.612,1.379-2.504,2.007l-29.27-41.598
	c7.148-5.029,15.988-5.85,23.603-3.001L308.818,219.546z"/>
<path style="fill:#713BB7;" d="M271.597,294.662l-84.296,0.027c-1.681,0-3.336-0.164-4.943-0.483
	c-8.467-1.673-15.647-7.583-18.815-15.854l-24.422-63.759c-2.531-6.606-2.119-13.615,0.585-19.588
	c-12.178,5.504-18.1,19.619-13.258,32.261l24.422,63.759c3.168,8.271,10.347,14.18,18.815,15.854
	c1.607,0.317,3.262,0.483,4.943,0.483l84.296-0.027c10.302-0.003,19.166-6.133,23.161-14.94
	C278.887,293.847,275.338,294.661,271.597,294.662z"/>
<path style="fill:#F9DCA2;" d="M284.345,282.386c-0.253,13.819-11.538,24.951-25.417,24.951h-1.936v-50.866h1.348
	C272.594,256.472,284.608,268.132,284.345,282.386z"/>
<polygon style="fill:#8E4E38;" points="362.447,7.606 381.71,244.75 358.392,254.889 394.89,504.394 429.361,504.394 429.361,7.606 
	"/>
<path d="M211.237,102.824c-4.2,0-7.604,3.404-7.604,7.604v8.778c0,4.2,3.404,7.604,7.604,7.604c4.2,0,7.604-3.404,7.604-7.604
	v-8.778C218.841,106.227,215.436,102.824,211.237,102.824z"/>
<path d="M238.72,97.736c-4.2,0-7.604,3.404-7.604,7.604v8.779c0,4.2,3.404,7.604,7.604,7.604c4.2,0,7.604-3.404,7.604-7.604v-8.779
	C246.324,101.14,242.921,97.736,238.72,97.736z"/>
<path d="M350.033,126.805L337.867,6.839c-0.424-4.178-4.154-7.215-8.333-6.798c-4.178,0.424-7.222,4.155-6.798,8.333l11.521,113.609
	l-42.512,11.956c-3.803,1.07-6.153,4.873-5.41,8.753l4.803,25.043c-5.254,0.085-10.448,1.415-15.136,3.944L313.886,9.334
	c0.954-4.089-1.587-8.178-5.678-9.133c-4.09-0.957-8.178,1.587-9.133,5.678l-41.767,178.993l-21.881,15.865
	c-0.81-11.381-5.269-22.042-12.562-30.551c26.473-10.845,44.86-37.494,43.325-68.156c-1.74-34.742-29.32-63.168-63.991-65.98
	c-8.965-0.727-17.602,0.285-25.643,2.689c-18.597-14.824-48.962-13.431-66.294,3.9c-9.091,9.092-11.818,21.059-14.457,32.632
	c-2.319,10.171-4.51,19.779-10.865,26.151c-1.608,1.612-2.526,3.824-2.252,6.084c0.516,4.262,3.945,6.919,7.607,6.919
	c0.722,0,1.454-0.104,2.173-0.317c0.405-0.121,10.039-3.013,21.318-8.106c4.879-2.202,9.294-4.466,13.243-6.785
	c-0.192,2.103-0.304,4.229-0.304,6.381c0,17.686,6.627,33.844,17.51,46.155c-30.4,46.951-42.964,103.012-35.4,158.578
	c1.068,7.862,3.071,15.524,5.975,22.873c1.648,4.169,6.467,6.081,10.482,4.087l0.004-0.002c3.51-1.743,5.164-5.886,3.716-9.528
	c-2.486-6.254-4.198-12.78-5.108-19.477c-0.414-3.039-0.754-6.079-1.039-9.12l23.311-0.439c4.735,8.063,12.651,13.765,22.032,15.618
	c2.102,0.416,4.256,0.627,6.4,0.627c0.006,0,0.013,0,0.02,0l76.708-0.025l43.174,43.175c6.487,6.487,6.485,17.056,0.001,23.553
	l-31.935,31.922l-23.58-23.58l14.686-14.613c0.751-0.747,1.391-1.616,1.787-2.599c1.192-2.955,0.451-6.174-1.658-8.284
	l-39.227-39.226c-2.584-2.603-5.838-4.273-8.097-5.21c-3.18-1.326-6.521-2.055-9.405-2.055c-6.783,0-12.846,4.048-15.443,10.313
	c-2.599,6.269-1.18,13.421,3.618,18.229l11.548,11.55c6.487,6.487,6.485,17.056,0.011,23.545l-32.231,32.107l-23.525-23.524
	l14.892-14.819c0.754-0.751,1.4-1.62,1.802-2.607c1.207-2.959,0.464-6.188-1.648-8.301l-8.555-8.554
	c-1.575-1.578-3.091-3.223-4.54-4.927c-2.54-2.987-6.975-3.467-10.161-1.182l0,0c-3.608,2.589-4.25,7.716-1.371,11.098
	c1.696,1.991,3.47,3.917,5.314,5.762l3.168,3.167l-54.675,54.41c-2.958,2.943-2.991,7.721-0.073,10.706l6.603,6.753l-5.733,5.732
	c-3.032,3.032-3.198,8.161-0.091,11.117c1.466,1.395,3.353,2.093,5.239,2.093c1.946,0,3.892-0.742,5.376-2.226l5.842-5.842
	l13.436,13.741l-5.46,5.46c-3.032,3.032-3.198,8.16-0.091,11.117c1.466,1.395,3.352,2.093,5.239,2.093
	c1.946,0,3.892-0.742,5.376-2.226l5.747-5.745l13.401,13.591c1.415,1.436,3.347,2.244,5.362,2.244h0.03
	c2.014,0,3.945-0.799,5.37-2.22l3.871-3.863c12.626-12.637,14.234-32.179,4.828-46.569l48.009-47.823
	c12.407-12.435,12.403-32.646-0.006-45.056l-11.544-11.545c-0.177-0.178-0.718-0.719-0.329-1.655
	c0.386-0.932,1.147-0.932,1.396-0.932c0.659,0,1.986,0.232,3.568,0.891c1.598,0.662,2.692,1.427,3.161,1.901l33.858,33.857
	l-54.678,54.409c-2.958,2.943-2.991,7.722-0.073,10.706l6.424,6.57l-5.917,5.917c-3.03,3.03-3.198,8.157-0.094,11.114
	c1.467,1.397,3.356,2.096,5.243,2.096c1.946,0,3.892-0.742,5.377-2.226l6.023-6.023l13.435,13.74l-5.643,5.643
	c-3.03,3.03-3.198,8.157-0.093,11.113c1.467,1.397,3.356,2.096,5.243,2.096c1.946,0,3.892-0.742,5.377-2.226l5.927-5.928
	l13.577,13.769c1.417,1.438,3.352,2.247,5.37,2.247h0.025c2.017,0,3.951-0.801,5.377-2.227l3.855-3.856
	c12.57-12.581,14.21-32.08,4.891-46.457l34.461-34.448l17.344,99.79c0.643,3.697,3.855,6.303,7.483,6.303
	c0.432,0,0.87-0.036,1.311-0.112c4.138-0.72,6.908-4.657,6.19-8.794l-18.938-108.952l35.544-24.607
	c2.475-1.713,3.706-4.727,3.14-7.684l-15.804-82.406c-0.792-4.124-4.785-6.825-8.9-6.035c-4.124,0.791-6.826,4.776-6.036,8.901
	l14.871,77.541l-13.425,9.295c-0.182-7.911-3.274-15.763-9.291-21.782l-34.613-34.614c12.203-4.701,21.037-16.471,21.294-30.221
	c0.163-8.773-3.195-17.117-9.455-23.494c-2.282-2.324-4.886-4.286-7.699-5.851l28.821-20.402l4.068,21.209
	c0.699,3.641,3.885,6.173,7.459,6.172c0.475,0,0.957-0.045,1.442-0.137c4.123-0.791,6.825-4.776,6.035-8.901l-20.03-104.437
	l41.937-11.795C348.083,133.892,350.406,130.481,350.033,126.805z M143.976,445.054c8.022,8.021,8.512,20.77,1.48,29.371
	l-44.099-44.671l28.924-28.783l23.531,23.532l-9.826,9.788c-1.431,1.424-2.236,3.36-2.238,5.381
	C141.747,441.689,142.548,443.625,143.976,445.054z M241.74,445.131c7.943,8.011,8.407,20.718,1.415,29.288l-44.091-44.666
	l29.156-29.012l23.604,23.604l-10.059,10.055C238.803,437.36,238.791,442.157,241.74,445.131z M275.264,190.638l20.469,29.09
	l-37.063,26.237l12.16-52.111L275.264,190.638z M296.16,193.908l-7.535-10.709c1.797-0.311,3.638-0.346,5.463-0.098L296.16,193.908z
	 M242.375,248.872l-6.665,0.002l-0.092-29.491l16.415-11.902L242.375,248.872z M170.189,125.642l-13.883-3.62
	c5.069-3.03,10.097-5.871,15.039-8.531L170.189,125.642z M171.997,141.83l9.83,16.313c-12.443-3.481-23.103-11.261-30.264-21.644
	L171.997,141.83z M154.817,163.456c9.828,27.419,36.045,46.151,65.563,46.2l0.123,39.223l-23.159,0.008l-16.291-42.532
	c-5.989-15.635-22.643-24.098-38.502-20.314C146.176,178.314,150.269,170.772,154.817,163.456z M218.974,194.42
	c-16.973-0.475-32.421-8.824-42.217-21.911c6.266,1.852,12.889,2.863,19.747,2.863c3.125,0,6.196-0.227,9.213-0.627
	C212.209,179.753,216.816,186.665,218.974,194.42z M200.694,159.987l-15.974-26.51l2.681-28.165
	c26.395-12.724,48.518-19.945,58.489-22.901c3.319,7.041,5.185,14.898,5.185,23.185
	C251.074,134.275,228.831,157.839,200.694,159.987z M237.086,69.159c-17.813,5.534-55.197,18.88-94.675,43.524
	c-0.303-2.322-0.475-4.684-0.475-7.087c0-30.09,24.479-54.57,54.569-54.57C212.602,51.026,227.089,58.037,237.086,69.159z
	 M133.981,74.104c-5.065,7.087-16.386,13.522-26.913,18.247c1.493-4.605,2.556-9.272,3.568-13.704
	c2.259-9.906,4.391-19.265,10.383-25.256c9.806-9.808,26.174-12.214,38.71-7.059c-10.867,6.77-19.739,16.44-25.537,27.923
	L133.981,74.104z M124.689,243.929l15.207,39.699l-17.924,0.338C121.646,270.505,122.563,257.107,124.689,243.929z M174.624,299.76
	c-0.003,0-0.007,0-0.01,0c-1.158,0-2.319-0.114-3.452-0.338c-6.052-1.196-10.981-5.35-13.188-11.114l-24.422-63.759
	c-3.516-9.18,1.092-19.51,10.272-23.027c2.092-0.801,4.241-1.18,6.357-1.18c7.174,0,13.955,4.364,16.67,11.452l18.162,47.419
	c1.126,2.941,3.95,4.884,7.101,4.884c0.001,0,0.002,0,0.003,0l56.135-0.019c0.055,0.001,0.109,0.009,0.163,0.009
	c0.038,0,0.074-0.009,0.112-0.01h0.86v35.657L174.624,299.76z M264.594,298.775V265.2c2.628,0.949,5.058,2.464,7.047,4.489
	c3.376,3.439,5.188,7.898,5.101,12.556C276.6,289.905,271.515,296.416,264.594,298.775z"/>
<g>
</g>
<g>
</g>
<g>
</g>
<g>
</g>
<g>
</g>
<g>
</g>
<g>
</g>
<g>
</g>
<g>
</g>
<g>
</g>
<g>
</g>
<g>
</g>
<g>
</g>
<g>
</g>
<g>
</g>
</svg>
