<svg height="512" viewBox="0 0 60 53" width="512" xmlns="http://www.w3.org/2000/svg"><g id="Page-1" fill="none" fill-rule="evenodd"><g id="024---Canadain-Landscape" fill-rule="nonzero"><path id="Shape" d="m6.962 43c-.41038042-.0001835-.77899079-.2510748-.92968885-.6327844-.15069807-.3817096-.05288893-.8167423.24668885-1.0972156.69353686-.6408421 1.46895603-1.1869309 2.306-1.624.958417-.5082602 1.9743403-.8997231 3.026-1.166.5351639-.1380712 1.0809288.1838361 1.219.719s-.1838361 1.0809288-.719 1.219c-.8972242.2267303-1.764064.5601044-2.582.993-.68311022.3546658-1.31627464.7981835-1.883 1.319-.18543241.1736073-.42998299.2701404-.684.27z" fill="#f5f5f5"/><path id="Shape" d="m18.74 21.35-2.74 1.65-3-2-3 2-2.74-1.65c4.439-11.1 3.573-8.931 4.81-12.03.1508496-.38168001.5195914-.63244048.93-.63244048s.7791504.25076047.93.63244048c1.188 2.98.177.447 4.81 12.03z" fill="#00bcd4"/><path id="Shape" d="m13.93 9.32c-.1508496-.38168001-.5195914-.63244048-.93-.63244048s-.7791504.25076047-.93.63244048l-.57 1.428c.452 1.134.684 1.711 4.24 10.6l-1.164.7 1.424.952 2.74-1.65c-4.633-11.583-3.622-9.05-4.81-12.03z" fill="#00838f"/><path id="Shape" d="m52.74 21.35-2.74 1.65-3-2-3 2-2.74-1.65 2.96-7.4h1.95c1.1952348.0055562 2.3139026-.5875629 2.98-1.58z" fill="#00bcd4"/><path id="Shape" d="m49.15 12.37c-.5493175.8200864-1.4152727 1.3744427-2.39 1.53l2.98 7.454-1.164.7 1.424.946 2.74-1.65z" fill="#00838f"/><path id="Shape" d="m57.52 37h-4.69c-2.723299-1.4114401-5.76453-2.0968364-8.83-1.99l-4.1-10.26 1.36-3.4 2.74 1.65 3-2 3 2 2.74-1.65 5.71 14.28c.1227404.3081879.08466.657184-.101656.9316496-.186316.2744655-.4966139.4386717-.828344.4383504z" fill="#607d8b"/><path id="Shape" d="m58.45 35.63-5.71-14.28-2.418 1.456 5.128 12.824c.1227404.3081879.08466.657184-.101656.9316496-.186316.2744655-.4966139.4386717-.828344.4383504h3c.3317301.0003213.642028-.1638849.828344-.4383504.186316-.2744656.2243964-.6234617.101656-.9316496z" fill="#37474f"/><path id="Shape" d="m44 35.01c-4.0418737.0055525-7.937417 1.5131599-10.93 4.23-2.0341146-.3205619-4.1058854-.3205619-6.14 0-2.992583-2.7168401-6.8881263-4.2244475-10.93-4.23 5-12.51 3.641-9.11 5.87-14.68l4.13 2.67 4-3 4 3 4.13-2.67c2.357 5.887 1.006 2.508 5.87 14.68z" fill="#7f8e94"/><g fill="#545c60"><path id="Shape" d="m31 23 1.611-1.042-2.611-1.958-1.5 1.125z"/><path id="Shape" d="m23 23 1.389-1.042-2.519-1.628c-.245.613-.445 1.112-.617 1.541z"/><path id="Shape" d="m38.13 20.33-2.383 1.541c1.527 3.813.887 2.214 5.253 13.139-3.9199179.0147165-7.7047497 1.433851-10.668 4 .9169149.011055 1.8318854.0872469 2.738.228 2.9928823-2.7161135 6.8883924-4.2229952 10.93-4.228-4.864-12.172-3.513-8.793-5.87-14.68z"/></g><path id="Shape" d="m38.13 20.33-4.13 2.67-4-3-4 3-4.13-2.67 7.2-18.01c.1508496-.38168001.5195914-.63244048.93-.63244048s.7791504.25076047.93.63244048c6.831 17.09.67 1.655 7.2 18.01z" fill="#00bcd4"/><path id="Shape" d="m30.93 2.32c-.1508496-.38168001-.5195914-.63244048-.93-.63244048s-.7791504.25076047-.93.63244048l-.57 1.426c5.906 14.776.29.712 6.63 16.584l-2.519 1.628 1.389 1.042 4.13-2.67c-6.53-16.355-.369-.92-7.2-18.01z" fill="#00838f"/><path id="Shape" d="m58.92 44.86c.0373594.287837-.0509191.5778344-.2423219.7960335-.1914027.2181991-.4674271.3435071-.7576781.3439665h-13.72c-2.5944489-3.7180696-6.6345223-6.1718788-11.13-6.76 3.1299396-2.8191347 7.2187236-4.335884 11.43-4.24 8.115 0 13.739 4.813 14.42 9.86z" fill="#60a917"/><path id="Shape" d="m44.5 35c-.486 0-.974.023-1.462.06 7.281.564 12.245 5.079 12.882 9.8.0373594.287837-.0509191.5778344-.2423219.7960335-.1914027.2181991-.4674271.3435071-.7576781.3439665h3c.290251-.0004594.5662754-.1257674.7576781-.3439665.1914028-.2181991.2796813-.5081965.2423219-.7960335-.681-5.047-6.305-9.86-14.42-9.86z" fill="#549414"/><path id="Shape" d="m20.1 24.75-4.1 10.26c-3.0654361-.1064744-6.10657637.5789015-8.83 1.99h-4.69c-.33173014.0003213-.64202796-.1638849-.82834398-.4383504-.18631602-.2744656-.22439638-.6234617-.10165602-.9316496l5.71-14.28 2.74 1.65 3-2 3 2 2.74-1.65z" fill="#607d8b"/><path id="Shape" d="m18.74 21.35-2.418 1.456.778 1.944-4.1 10.26c-3.06543609-.1064744-6.10657637.5789015-8.83 1.99h3c2.72342363-1.4110985 5.7645639-2.0964744 8.83-1.99l4.1-10.26z" fill="#37474f"/><path id="Shape" d="m45.94 50.89c.0294427.2832746-.0625639.5657548-.2531908.7773506-.1906269.2115959-.4620086.3324768-.7468092.3326494h-29.88c-.2848006-.0001726-.5561823-.1210535-.7468092-.3326494-.1906269-.2115958-.2826335-.494076-.2531908-.7773506.1881579-1.7455159.7879288-3.421447 1.75-4.89l.03.02c1.0179263-1.6006516 2.3601305-2.9701087 3.94-4.02 9.8-6.666 25.08-1.613 26.16 8.89z" fill="#a4c400"/><path id="Shape" d="m28.4 39.057c7.233.555 13.841 5.057 14.538 11.833.0294427.2832746-.0625639.5657548-.2531908.7773506-.1906269.2115959-.4620086.3324768-.7468092.3326494h3c.2848006-.0001726.5561823-.1210535.7468092-.3326494.1906269-.2115958.2826335-.494076.2531908-.7773506-.791-7.707-9.228-12.472-17.538-11.833z" fill="#90ac00"/><path id="Shape" d="m26.93 39.24c-4.394.7-8.722 2.957-11.09 6.78-.1-.067.559-.02-13.76-.02-.29025098-.0004594-.56627543-.1257674-.75767815-.3439665-.19140271-.2181991-.2796813-.5081965-.24232185-.7960335 1.32-9.751 17.791-13.46 25.85-5.62z" fill="#60a917"/><path id="Shape" d="m14.13 35.067c3.6533466.2056171 7.1199176 1.6817396 9.8 4.173-4.381.7-8.695 2.945-11.067 6.748 3.135-.007 2.915-.009 2.977.032 2.368-3.823 6.7-6.08 11.09-6.78-3.4778793-3.1500586-8.1337885-4.6679577-12.8-4.173z" fill="#549414"/><path id="Shape" d="m2.077 46c5.34 0 8.6-.006 10.585-.011-.462-.014-2.378.011-10.585.011z" fill="#549414"/><path id="Shape" d="m20.78 7.65c-.0038626 2.21144251-1.7985547 4.0016591-4.01 4h-1.91l-.93-2.33c-.1508496-.38168001-.5195914-.63244048-.93-.63244048s-.7791504.25076047-.93.63244048l-.93 2.33h-2.76c-1.37890963-.0117344-2.62995915-.810108-3.22141167-2.05578589-.59145252-1.24567788-.41937277-2.71975855.44309972-3.7957096s2.26377646-1.56469686 3.60831195-1.25850451c.32741912-1.34018724 1.4634523-2.3288616 2.8360072-2.46813885 1.3725549-.13927726 2.6840341.60104069 3.2739928 1.84813885 1.2321762-.4830744 2.6235305-.32539462 3.7163541.421168s1.7456218 1.985346 1.7436459 3.308832z" fill="#f5f5f5"/><path id="Shape" d="m15.32 3.92c-.3745766-.80017987-1.0591419-1.41310029-1.8956982-1.6972992-.8365562-.28419891-1.7528143-.21511788-2.5373018.1912992.6330366.32709624 1.1377349.857505 1.433 1.506 1.3808743-.54624323 2.9507869-.28148455 4.076138.6874223s1.6204194 2.48205918 1.2854007 3.92876512-1.4448348 2.58820968-2.8815387 2.96381258l.06.15h1.91c1.6059584-.0021396 3.0549293-.9645518 3.679635-2.44402795.6247058-1.47947616.304008-3.18912724-.8144061-4.34162749-1.1184141-1.15250026-2.8176699-1.52436535-4.3152289-.94434456z" fill="#cfd8dc"/><path id="Shape" d="m49.78 10.35c-.0044128 1.9902994-1.619696 3.6011082-3.61 3.6h-8.39c-.9383864-.0037583-1.846513-.33238-2.57-.93l-.01-.01c-1.442-3.606-1.4-3.41-1.4-3.51.143433-1.23464865.850607-2.33325142 1.915046-2.97504558 1.0644391-.64179415 2.366108-.75440546 3.524954-.30495442.5899587-1.24709816 1.9014379-1.98741611 3.2739928-1.84813885 1.3725549.13927725 2.5085881 1.12795161 2.8360072 2.46813885 1.0723151-.25407534 2.201934-.00301625 3.0656792.68135074.8637452.68436698 1.3664601 1.72664681 1.3643208 2.82864926z" fill="#f5f5f5"/><path id="Shape" d="m45.35 6.84c-.2373086-.97483902-.9092554-1.78664635-1.8225797-2.20193568-.9133243-.41528934-1.966795-.38803081-2.8574203.07393568.8538174.41775371 1.4718081 1.20054197 1.68 2.128 1.3457566-.30659974 2.7483363.18322307 3.6106461 1.26094566.8623098 1.07772258 1.0325223 2.55358974.4381763 3.79930924-.594346 1.2457194-1.8486038 2.0419567-3.2288224 2.0497451h3c1.3802186-.0077884 2.6344764-.8040257 3.2288224-2.0497451.594346-1.2457195.4241335-2.72158666-.4381763-3.79930924-.8623098-1.07772259-2.2648895-1.5675454-3.6106461-1.26094566z" fill="#cfd8dc"/><path id="Shape" d="m6.962 43c-.41038042-.0001835-.77899079-.2510748-.92968885-.6327844-.15069807-.3817096-.05288893-.8167423.24668885-1.0972156.69353686-.6408421 1.46895603-1.1869309 2.306-1.624.958417-.5082602 1.9743403-.8997231 3.026-1.166.5351639-.1380712 1.0809288.1838361 1.219.719s-.1838361 1.0809288-.719 1.219c-.8972242.2267303-1.764064.5601044-2.582.993-.68311022.3546658-1.31627464.7981835-1.883 1.319-.18543241.1736073-.42998299.2701404-.684.27z" fill="#f5f5f5"/><path id="Shape" d="m11.611 38.48c-1.0516597.2662769-2.067583.6577398-3.026 1.166-.83704397.4370691-1.61246314.9831579-2.306 1.624-.40316787.3774866-.42398663 1.0103321-.0465 1.4135s1.01033213.4239866 1.4135.0465c.56548937-.5205264 1.19729302-.964033 1.879-1.319.817936-.4328956 1.6847758-.7662697 2.582-.993.3461904-.0893164.6184337-.3565385.7141786-.7010063.0957449-.3444679.0004455-.7138486-.25-.9690001-.2504454-.2551514-.6179882-.35731-.9641786-.2679936z" fill="#000"/><path id="Shape" d="m56.05 38h1.47c.6635444.000443 1.2841084-.3282387 1.6565573-.8773955.3724489-.5491567.4482861-1.2472828.2024427-1.8636045l-9.125-22.821c.3405663-.6436221.520994-1.359845.526-2.088-.0023499-1.24858115-.510184-2.44300192-1.4077314-3.31097024-.8975475-.86796831-2.1083095-1.33550646-3.3562686-1.29602976-.6503549-1.3331396-1.9470649-2.23225708-3.4236041-2.37387099-1.4765393-.14161391-2.9205064.49464702-3.8123959 1.67987099-.3292722-.06588061-.6642024-.09937362-1-.1-1.5438742-.00210023-3.0021354.70912968-3.951 1.927l-1.972-4.932c-.3030356-.76070127-1.0391612-1.25984056-1.858-1.25984056s-1.5549644.49913929-1.858 1.25984056l-8.041 20.114-3.761-9.408h.431c2.7641852 0 5.005-2.2408148 5.005-5.005 0-2.76418517-2.2408148-5.005-5.005-5.005-.3338974-.0010783-.6670084.03243388-.994.1-.8931319-1.18283439-2.3366408-1.81672796-3.8119007-1.67393455-1.47526.14279342-2.77039958 1.04176634-3.4200993 2.37393455-1.64520806-.02929581-3.18107213.8213418-4.02904706 2.23148589-.84797494 1.41014408-.87923316 3.16556019-.08200001 4.60500001.79723316 1.4394399 2.301839 2.3442184 3.94704707 2.3735141h1.281l-9.042 22.614c-.24383502.6160976-.16671032 1.3129667.20594456 1.8608354.37265487.5478688.99246083.8756114 1.65505544.8751646h1.47c-2.0696075 1.6915507-3.44488694 4.0851206-3.864 6.725-.07665839.5738742.09799222 1.152921.47917989 1.5887009s.93184861.6859209 1.51082011.6862991h12.041c-.5598595 1.1953676-.9154501 2.4761023-1.052 3.789-.0580966.5655065.1264751 1.1291076.5078329 1.5506986s.9236857.6615775 1.4921671.6603014h7.935c.5522847 0 1-.4477153 1-1s-.4477153-1-1-1l-7.945-.007c.1721277-1.5897144.7206105-3.1155249 1.6-4.451.1988658-.3083356.2129088-.7008156.0365877-1.0225753-.176321-.3217598-.5146878-.5211229-.8815877-.5194247l-13.743-.007c.386-2.844 2.417-5.435 5.574-7.111 2.4264764-1.2602264 5.1248892-1.9064172 7.859-1.882.156 0 .292 0 .475.009 3.0991378.0391449 6.120708.9744424 8.7 2.693-1.9434126.5166962-3.7879751 1.3512939-5.459 2.47-.2958159.2006046-.4621398.5437869-.436319.9002733.0258207.3564864.2398633.6721182.5615.828.3216366.1558817.7020031.1283313.997819-.0722733 2.0313603-1.3504962 4.3346796-2.2380951 6.747-2.6 1.9305557-.3024973 3.8964443-.3024973 5.827 0 2.2958837.3491993 4.4950465 1.1682683 6.46 2.406.3005708.2075142.690369.23465 1.0167934.070784s.537543-.4926636.5507055-.8576728-.1737252-.7081592-.4874989-.8951112c-1.5875882-1.005933-3.3195807-1.7633425-5.136-2.246 2.5907157-1.7259284 5.6262319-2.663781 8.739-2.7.152-.006.294-.006.444-.006 2.7348562-.0243137 5.4339703.6222238 7.861 1.883 3.155 1.675 5.186 4.266 5.563 7.117h-13.724c-.3612954.0088847-.6905535.2093952-.8642621.5263157-.1737087.3169204-.1656085.702342.0212621 1.0116843.8735324 1.3410066 1.4160867 2.8703035 1.583 4.462h-17.94c-.5522847 0-1 .4477153-1 1s.4477153 1 1 1h17.94c.5686745.0013057 1.1111803-.2388158 1.4925728-.6606358.3813924-.4218201.5658271-.9856949.5074272-1.5513642-.1432847-1.3131924-.5042199-2.5933633-1.068-3.788h12.052c.5789715-.0003782 1.1296324-.2505192 1.5108201-.6862991s.5558383-1.0148267.4791799-1.5887009c-.418844-2.6399744-1.7941749-5.0336339-3.864-6.725zm-2.988-2c-2.6029411-1.3069176-5.4743877-1.9899432-8.387-1.995l-3.7-9.252.776-1.939 1.732 1.043c.3321203.1982509.7484918.1885317 1.071-.025l2.446-1.632 2.445 1.63c.322051.2149837.7392686.2247227 1.071.025l1.732-1.043 5.272 13.188zm-6.892-21.05c.9321651.0000083 1.842219-.2839257 2.609-.814l2.717 6.8-1.469.884-2.472-1.648c-.3360369-.2241995-.7739631-.2241995-1.11 0l-2.472 1.648-1.473-.888 2.4-5.982zm-6.27 7.109-2.87-7.175c.2479634.0409967.4986876.0630605.75.066h4.963zm-2.12-15.109c.3758558-.00165816.7487827.06614673 1.1.2.4934956.19300627 1.0518707-.0324492 1.273-.514.4095049-.86231741 1.3176192-1.37335227 2.2672421-1.27587442s1.7349789.78234574 1.9607579 1.70987442c.126361.5318499.6563812.86366926 1.19.745.1965813-.0474042.3978077-.07289288.6-.076 1.4387018 0 2.605 1.16629823 2.605 2.605 0 1.4387018-1.1662982 2.605-2.605 2.605h-8.391c-.6311953-.0063863-1.2446825-.2094837-1.755-.581l-1.186-2.968c.2598913-1.41982272 1.4975876-2.45088564 2.941-2.45zm-7.78-4.259 2.84 7.1v.008l4.06 10.138-2.855 1.845-3.445-2.582c-.3555556-.2666667-.8444444-.2666667-1.2 0l-3.442 2.582-2.853-1.844zm-17 7 .936 2.338.006.017 3.558 8.886-1.469.884-2.472-1.648c-.3360369-.2241995-.7739631-.2241995-1.11 0l-2.476 1.648-1.468-.883zm-4.62.959c-1.43870175 0-2.60499995-1.16629825-2.60499995-2.605s1.1662982-2.60499997 2.60499995-2.605c.19508688-.00168394.38961175.02116181.579.068.26019242.06747982.53659557.02736864.76687387-.11128749.2302783-.13865614.39503953-.36418072.45712613-.62571251.2262586-.92869951 1.0134547-1.61385159 1.9644876-1.70983151s1.8592544.41806762 2.2665124 1.28283151c.2232216.47765117.7789422.69993941 1.27.508.3454427-.13834698.7138877-.21027179 1.086-.212 1.6596157 0 3.005 1.34538433 3.005 3.005s-1.3453843 3.005-3.005 3.005h-1.231l-.682-1.706c-.3030356-.76070127-1.0391612-1.25984056-1.858-1.25984056s-1.5549644.49913929-1.858 1.25984056l-.68 1.7zm-5.901 25.35 5.274-13.186 1.731 1.043c.33212033.1982509.7484918.1885317 1.071-.025l2.445-1.632 2.445 1.63c.322051.2149837.7392686.2247227 1.071.025l1.733-1.043.775 1.939-3.7 9.252c-2.912473.0055029-5.78364266.6892288-8.386 1.997zm24.773 2.2c-2.7520599-2.3749567-6.1893565-3.8111043-9.813-4.1l4.909-12.27 3.109 2.01c.3517782.2273582.807976.2113933 1.143-.04l3.4-2.55 3.4 2.55c.335024.2513933.7912218.2673582 1.143.04l3.11-2.011 4.908 12.271c-3.6235109.2894431-7.0606439 1.7255223-9.813 4.1-1.8239751-.242501-3.6720249-.242501-5.496 0z" fill="#000"/></g></g></svg>